<svg width="20" height="20" viewBox="0 0 20 20" fill="none" xmlns="http://www.w3.org/2000/svg">
<path d="M6.46447 13.5356C6.66481 13.7359 6.90075 13.8361 7.17228 13.8361C7.44287 13.8361 7.67833 13.7359 7.87868 13.5356L10 11.4143L12.139 13.5533C12.3393 13.7536 12.5722 13.8507 12.8376 13.8446C13.1025 13.8389 13.3352 13.7359 13.5355 13.5356C13.7359 13.3352 13.8361 13.0993 13.8361 12.8278C13.8361 12.5572 13.7359 12.3217 13.5355 12.1214L11.4142 10L13.5532 7.86105C13.7536 7.6607 13.8509 7.42806 13.8452 7.16313C13.8391 6.89773 13.7359 6.66486 13.5355 6.46451C13.3352 6.26416 13.0997 6.16399 12.8291 6.16399C12.5576 6.16399 12.3217 6.26416 12.1213 6.46451L10 8.58583L7.861 6.44683C7.66066 6.24649 7.42802 6.14914 7.16309 6.1548C6.89769 6.16093 6.66481 6.26416 6.46447 6.46451C6.26412 6.66486 6.16395 6.90032 6.16395 7.17091C6.16395 7.44244 6.26412 7.67838 6.46447 7.87873L8.58579 10L6.44679 12.139C6.24644 12.3394 6.14933 12.5723 6.15546 12.8377C6.16112 13.1026 6.26412 13.3352 6.46447 13.5356ZM2.92893 17.0711C1.95077 16.0929 1.21726 14.988 0.728416 13.7562C0.239098 12.5249 -0.00556085 11.2728 -0.00556119 10C-0.00556152 8.72725 0.239098 7.4752 0.728416 6.24389C1.21726 5.01211 1.95077 3.90714 2.92893 2.92898C3.9071 1.95081 5.01207 1.21731 6.24385 0.728462C7.47516 0.239144 8.72721 -0.00551497 10 -0.00551497C11.2728 -0.00551497 12.5251 0.238908 13.7569 0.727755C14.9882 1.21707 16.0929 1.95081 17.0711 2.92898C18.0492 3.90714 18.783 5.01188 19.2723 6.24319C19.7611 7.47497 20.0056 8.72725 20.0056 10C20.0056 11.2728 19.7609 12.5249 19.2716 13.7562C18.7827 14.988 18.0492 16.0929 17.0711 17.0711C16.0929 18.0493 14.9879 18.7828 13.7562 19.2716C12.5248 19.7609 11.2728 20.0056 10 20.0056C8.72721 20.0056 7.47516 19.7609 6.24385 19.2716C5.01207 18.7828 3.9071 18.0493 2.92893 17.0711ZM4.34315 15.6569C5.91057 17.2243 7.79618 18.0083 10 18.0087C12.2038 18.0083 14.0894 17.2243 15.6569 15.6569C17.2243 14.0895 18.0082 12.2039 18.0087 10C18.0082 7.79623 17.2243 5.91061 15.6569 4.34319C14.0894 2.77577 12.2041 1.99206 10.0007 1.99206C7.79642 1.99206 5.91057 2.77577 4.34315 4.34319C2.77573 5.91061 1.99202 7.79647 1.99202 10.0008C1.99202 12.2041 2.77573 14.0895 4.34315 15.6569Z" fill="#6D7D8B"/>
</svg>
